<svg xmlns="http://www.w3.org/2000/svg" xmlns:xlink="http://www.w3.org/1999/xlink" width="500" zoomAndPan="magnify" viewBox="0 0 375 374.999991" height="500" preserveAspectRatio="xMidYMid meet" version="1.0"><defs><g/></defs><g fill="#ffa7e4" fill-opacity="1"><g transform="translate(45.878284, 273.335344)"><g><path d="M 26.25 -62.699219 C 25.351562 -62.699219 1.273438 -63.976562 1.273438 -43.125 C 1.273438 -30.074219 10.726562 -22.574219 23.398438 -22.574219 L 27.898438 -22.574219 C 30.375 -22.574219 32.398438 -21.074219 32.398438 -18.601562 C 32.398438 -16.199219 30.375 -14.476562 28.273438 -14.476562 C 27.074219 -14.476562 25.050781 -14.851562 24.300781 -17.851562 C 24.074219 -18.449219 23.773438 -18.824219 22.648438 -18.601562 L 2.550781 -16.199219 C 1.425781 -15.976562 1.199219 -15.226562 1.800781 -14.101562 C 4.875 -5.550781 10.351562 2.699219 29.101562 2.699219 C 38.550781 2.699219 50.476562 -2.476562 50.476562 -18.976562 C 50.476562 -39.300781 32.550781 -37.800781 26.25 -37.800781 C 24.300781 -37.800781 20.550781 -38.25 20.550781 -41.851562 C 20.550781 -44.773438 23.023438 -46.050781 24.675781 -46.050781 C 25.875 -46.050781 27.898438 -45.148438 28.648438 -43.125 C 28.949219 -42.226562 29.625 -41.851562 30.375 -41.851562 L 48.75 -44.398438 C 49.574219 -44.476562 50.175781 -45.300781 49.949219 -46.425781 C 49.125 -50.476562 45.523438 -62.699219 26.25 -62.699219 Z M 26.25 -62.699219 "/></g></g></g><g fill="#ffa7e4" fill-opacity="1"><g transform="translate(97.628235, 273.335344)"><g><path d="M 76.5 -51.375 L 76.875 -53.925781 C 76.949219 -54.226562 76.949219 -54.523438 76.949219 -54.898438 C 76.949219 -57.675781 74.625 -60 71.851562 -60 L 61.800781 -60 C 59.324219 -59.925781 57.300781 -58.050781 56.925781 -55.648438 L 53.175781 -34.5 L 52.875 -33 L 52.726562 -33.824219 L 49.800781 -55.351562 C 49.425781 -57.976562 47.324219 -60 44.625 -60 L 33.824219 -60 C 31.199219 -60 29.023438 -57.976562 28.726562 -55.351562 L 25.5 -32.324219 L 25.125 -34.5 L 21.449219 -55.648438 C 21.074219 -58.050781 18.976562 -59.925781 16.5 -60 L 6.523438 -60 C 3.601562 -60 1.273438 -57.675781 1.273438 -54.898438 C 1.273438 -54.523438 1.273438 -54.449219 1.351562 -53.925781 L 2.398438 -47.773438 L 5.625 -28.050781 L 9.375 -5.476562 C 9.898438 -2.398438 12.75 0 16.050781 0 L 29.023438 0 C 32.476562 -0.0742188 35.324219 -2.625 35.773438 -6 L 37.875 -23.175781 C 37.949219 -23.925781 38.398438 -24.449219 39.148438 -24.449219 C 39.824219 -24.449219 40.351562 -24 40.5 -23.324219 L 43.351562 -5.476562 C 44.023438 -2.398438 46.800781 0 50.101562 0 L 63.148438 0 C 66.523438 -0.0742188 69.300781 -2.550781 69.824219 -5.851562 Z M 76.5 -51.375 "/></g></g></g><g fill="#ffa7e4" fill-opacity="1"><g transform="translate(175.853161, 273.335344)"><g><path d="M 23.398438 -43.726562 L 38.625 -43.726562 C 40.800781 -43.726562 42.601562 -45.523438 42.601562 -47.625 L 42.601562 -56.023438 C 42.601562 -58.199219 40.800781 -59.925781 38.625 -59.925781 L 7.949219 -59.925781 C 4.875 -59.925781 2.476562 -57.523438 2.476562 -55.800781 L 2.476562 -6.976562 C 2.476562 -2.550781 4.875 -0.148438 7.949219 -0.148438 L 38.625 -0.148438 C 40.800781 -0.148438 42.601562 -1.875 42.601562 -4.050781 L 42.601562 -12.449219 C 42.601562 -14.625 40.800781 -16.5 38.625 -16.5 L 23.398438 -16.5 C 23.101562 -16.5 22.875 -16.726562 22.875 -17.023438 L 22.875 -21.824219 C 22.875 -22.125 23.101562 -22.351562 23.398438 -22.351562 L 34.425781 -22.351562 C 36.375 -22.351562 38.023438 -23.925781 38.023438 -25.949219 L 38.023438 -34.125 C 38.023438 -36.074219 36.375 -37.726562 34.425781 -37.726562 L 23.398438 -37.726562 C 23.101562 -37.726562 22.875 -37.949219 22.875 -38.175781 L 22.875 -43.125 C 22.875 -43.351562 23.101562 -43.726562 23.398438 -43.726562 Z M 23.398438 -43.726562 "/></g></g></g><g fill="#ffa7e4" fill-opacity="1"><g transform="translate(220.928116, 273.335344)"><g><path d="M 23.398438 -43.726562 L 38.625 -43.726562 C 40.800781 -43.726562 42.601562 -45.523438 42.601562 -47.625 L 42.601562 -56.023438 C 42.601562 -58.199219 40.800781 -59.925781 38.625 -59.925781 L 7.949219 -59.925781 C 4.875 -59.925781 2.476562 -57.523438 2.476562 -55.800781 L 2.476562 -6.976562 C 2.476562 -2.550781 4.875 -0.148438 7.949219 -0.148438 L 38.625 -0.148438 C 40.800781 -0.148438 42.601562 -1.875 42.601562 -4.050781 L 42.601562 -12.449219 C 42.601562 -14.625 40.800781 -16.5 38.625 -16.5 L 23.398438 -16.5 C 23.101562 -16.5 22.875 -16.726562 22.875 -17.023438 L 22.875 -21.824219 C 22.875 -22.125 23.101562 -22.351562 23.398438 -22.351562 L 34.425781 -22.351562 C 36.375 -22.351562 38.023438 -23.925781 38.023438 -25.949219 L 38.023438 -34.125 C 38.023438 -36.074219 36.375 -37.726562 34.425781 -37.726562 L 23.398438 -37.726562 C 23.101562 -37.726562 22.875 -37.949219 22.875 -38.175781 L 22.875 -43.125 C 22.875 -43.351562 23.101562 -43.726562 23.398438 -43.726562 Z M 23.398438 -43.726562 "/></g></g></g><g fill="#ffa7e4" fill-opacity="1"><g transform="translate(266.003072, 273.335344)"><g><path d="M 50.25 -60 L 7.726562 -60 C 4.875 -60 2.476562 -57.675781 2.476562 -54.75 L 2.476562 -44.476562 C 2.476562 -41.625 4.875 -39.226562 7.726562 -39.226562 L 18.074219 -39.226562 C 18.375 -39.226562 18.601562 -38.925781 18.601562 -38.699219 L 18.601562 -5.101562 C 18.601562 -2.25 20.925781 0.148438 23.925781 0.148438 L 34.125 0.148438 C 36.976562 0.148438 39.375 -2.25 39.375 -5.101562 L 39.375 -38.699219 C 39.375 -38.925781 39.675781 -39.226562 39.976562 -39.226562 L 50.25 -39.226562 C 53.101562 -39.226562 55.5 -41.625 55.5 -44.476562 L 55.5 -54.75 C 55.5 -57.675781 53.101562 -60 50.25 -60 Z M 50.25 -60 "/></g></g></g><path stroke-linecap="butt" transform="matrix(0.9375, 0, 0, 0.9375, 0.0000045, 211.461783)" fill="none" stroke-linejoin="miter" d="M 79.695834 -2.875902 C 78.716667 -2.875902 53.054165 -4.242569 53.054165 18.003266 C 53.054165 31.928267 63.133333 39.919934 76.65 39.919934 L 81.454167 39.919934 C 84.091667 39.919934 86.237501 41.519934 86.237501 44.157434 C 86.237501 46.715768 84.091667 48.549101 81.841667 48.549101 C 80.575 48.549101 78.404167 48.161601 77.604167 44.957435 C 77.370834 44.311601 77.0375 43.919934 75.845834 44.157434 L 54.404165 46.715768 C 53.212499 46.969935 52.974999 47.769935 53.599999 48.961601 C 56.883332 58.082435 62.720833 66.869936 82.720834 66.869936 C 92.800001 66.869936 105.533335 61.361602 105.533335 43.765768 C 105.533335 22.0866 86.412501 23.6866 79.695834 23.6866 C 77.604167 23.6866 73.6 23.1991 73.6 19.353266 C 73.6 16.244933 76.2375 14.878266 78.016667 14.878266 C 79.283334 14.878266 81.454167 15.836599 82.254167 18.003266 C 82.566667 18.961599 83.287501 19.353266 84.091667 19.353266 L 103.679169 16.636599 C 104.558335 16.557433 105.204169 15.678266 104.966669 14.486599 C 104.091669 10.153266 100.241668 -2.875902 79.695834 -2.875902 Z M 188.487508 9.194932 L 188.879174 6.482432 C 188.958341 6.169932 188.958341 5.836599 188.958341 5.444932 C 188.958341 2.478265 186.495841 -0.00506844 183.529174 -0.00506844 L 172.804173 -0.00506844 C 170.166673 0.0740982 168.000006 2.086598 167.60834 4.644932 L 163.604173 27.203267 L 163.291673 28.803267 L 163.116673 27.9241 L 160.012506 4.957432 C 159.604172 2.165765 157.375006 -0.00506844 154.483339 -0.00506844 L 142.962505 -0.00506844 C 140.166671 -0.00506844 137.845838 2.165765 137.533338 4.957432 L 134.095837 29.528267 L 133.683337 27.203267 L 129.758337 4.644932 C 129.36667 2.086598 127.120837 0.0740982 124.483337 -0.00506844 L 113.841669 -0.00506844 C 110.733336 -0.00506844 108.254169 2.478265 108.254169 5.444932 C 108.254169 5.836599 108.254169 5.915765 108.333336 6.482432 L 109.445836 13.044932 L 112.883336 34.078267 L 116.887503 58.161602 C 117.45417 61.440769 120.47917 63.999102 124.01667 63.999102 L 137.845838 63.999102 C 141.537504 63.919936 144.562505 61.207436 145.050005 57.594935 L 147.279172 39.274101 C 147.375005 38.474101 147.845838 37.924101 148.645838 37.924101 C 149.366672 37.924101 149.933338 38.394934 150.091672 39.115767 L 153.116672 58.161602 C 153.841672 61.440769 156.808339 63.999102 160.325006 63.999102 L 174.250007 63.999102 C 177.84584 63.919936 180.812507 61.286602 181.35834 57.769935 Z M 215.287509 17.357433 L 231.520844 17.357433 C 233.841677 17.357433 235.775011 15.444933 235.775011 13.199099 L 235.775011 4.232432 C 235.775011 1.928265 233.841677 0.0740982 231.520844 0.0740982 L 198.804175 0.0740982 C 195.520841 0.0740982 192.962508 2.632432 192.962508 4.486599 L 192.962508 56.557435 C 192.962508 61.286602 195.520841 63.844936 198.804175 63.844936 L 231.520844 63.844936 C 233.841677 63.844936 235.775011 62.007436 235.775011 59.682435 L 235.775011 50.719935 C 235.775011 48.394935 233.841677 46.403268 231.520844 46.403268 L 215.287509 46.403268 C 214.975009 46.403268 214.720843 46.169935 214.720843 45.836601 L 214.720843 40.719934 C 214.720843 40.407434 214.975009 40.153268 215.287509 40.153268 L 227.045843 40.153268 C 229.13751 40.153268 230.895844 38.474101 230.895844 36.324101 L 230.895844 27.594933 C 230.895844 25.5241 229.13751 23.765766 227.045843 23.765766 L 215.287509 23.765766 C 214.975009 23.765766 214.720843 23.5116 214.720843 23.278266 L 214.720843 18.003266 C 214.720843 17.769933 214.975009 17.357433 215.287509 17.357433 Z M 263.366679 17.357433 L 279.600014 17.357433 C 281.925014 17.357433 283.858347 15.444933 283.858347 13.199099 L 283.858347 4.232432 C 283.858347 1.928265 281.925014 0.0740982 279.600014 0.0740982 L 246.883345 0.0740982 C 243.604178 0.0740982 241.045844 2.632432 241.045844 4.486599 L 241.045844 56.557435 C 241.045844 61.286602 243.604178 63.844936 246.883345 63.844936 L 279.600014 63.844936 C 281.925014 63.844936 283.858347 62.007436 283.858347 59.682435 L 283.858347 50.719935 C 283.858347 48.394935 281.925014 46.403268 279.600014 46.403268 L 263.366679 46.403268 C 263.054179 46.403268 262.800012 46.169935 262.800012 45.836601 L 262.800012 40.719934 C 262.800012 40.407434 263.054179 40.153268 263.366679 40.153268 L 275.125013 40.153268 C 277.21668 40.153268 278.975014 38.474101 278.975014 36.324101 L 278.975014 27.594933 C 278.975014 25.5241 277.21668 23.765766 275.125013 23.765766 L 263.366679 23.765766 C 263.054179 23.765766 262.800012 23.5116 262.800012 23.278266 L 262.800012 18.003266 C 262.800012 17.769933 263.054179 17.357433 263.366679 17.357433 Z M 340.079184 -0.00506844 L 294.729181 -0.00506844 C 291.683348 -0.00506844 289.125014 2.478265 289.125014 5.603265 L 289.125014 16.557433 C 289.125014 19.607433 291.683348 22.165766 294.729181 22.165766 L 305.766682 22.165766 C 306.095849 22.165766 306.329182 22.478266 306.329182 22.7116 L 306.329182 58.549102 C 306.329182 61.599102 308.812515 64.157436 312.016682 64.157436 L 322.891683 64.157436 C 325.92085 64.157436 328.479183 61.599102 328.479183 58.549102 L 328.479183 22.7116 C 328.479183 22.478266 328.812517 22.165766 329.125017 22.165766 L 340.079184 22.165766 C 343.129184 22.165766 345.687518 19.607433 345.687518 16.557433 L 345.687518 5.603265 C 345.687518 2.478265 343.129184 -0.00506844 340.079184 -0.00506844 Z M 340.079184 -0.00506844 " stroke="#ff66c4" stroke-width="1.300003" stroke-opacity="1" stroke-miterlimit="4"/><g fill="#5ce1e6" fill-opacity="1"><g transform="translate(3.879144, 172.005135)"><g><path d="M 51.097656 -42.886719 L 34.765625 -42.886719 C 34.765625 -42.886719 32.847656 -42.886719 31.570312 -41.515625 C 30.476562 -40.421875 30.113281 -39.054688 30.113281 -38.234375 L 30.113281 -34.671875 C 30.113281 -32.210938 32.394531 -30.386719 34.855469 -30.386719 L 37.230469 -30.386719 L 37.230469 -27.464844 C 37.230469 -23.632812 34.125 -21.078125 30.292969 -21.078125 C 26.554688 -21.078125 23.449219 -24.179688 23.449219 -27.921875 L 23.449219 -45.167969 C 23.449219 -48.359375 26.097656 -52.011719 30.292969 -52.011719 C 32.757812 -52.011719 34.949219 -50.640625 35.953125 -49 C 36.589844 -48.085938 37.136719 -47.996094 37.777344 -47.996094 L 53.835938 -47.996094 C 54.292969 -47.996094 55.75 -48.085938 56.9375 -49.273438 C 58.308594 -50.550781 58.308594 -51.917969 58.308594 -52.46875 L 58.308594 -53.5625 C 58.308594 -54.839844 56.207031 -61.410156 51.828125 -65.972656 C 47.632812 -70.351562 41.425781 -74.09375 32.117188 -74.09375 L 27.28125 -74.09375 C 19.4375 -74.09375 11.863281 -70.167969 7.480469 -64.875 C 3.558594 -60.039062 1.550781 -54.109375 1.550781 -48.726562 L 1.550781 -24.363281 C 1.550781 -17.703125 4.199219 -11.863281 7.390625 -8.121094 C 14.050781 -0.273438 22.445312 1.1875 26.1875 1.1875 L 33.304688 1.1875 C 41.0625 1.1875 48.269531 -2.644531 52.011719 -6.933594 C 56.117188 -11.589844 58.855469 -17.246094 58.855469 -24.363281 L 58.855469 -32.574219 C 58.855469 -38.960938 55.386719 -42.886719 51.097656 -42.886719 Z M 51.097656 -42.886719 "/></g></g></g><g fill="#5ce1e6" fill-opacity="1"><g transform="translate(64.283446, 172.005135)"><g><path d="M 28.46875 -53.195312 L 46.992188 -53.195312 C 49.636719 -53.195312 51.828125 -55.386719 51.828125 -57.941406 L 51.828125 -68.160156 C 51.828125 -70.808594 49.636719 -72.90625 46.992188 -72.90625 L 9.671875 -72.90625 C 5.929688 -72.90625 3.011719 -69.988281 3.011719 -67.886719 L 3.011719 -8.484375 C 3.011719 -3.101562 5.929688 -0.183594 9.671875 -0.183594 L 46.992188 -0.183594 C 49.636719 -0.183594 51.828125 -2.28125 51.828125 -4.925781 L 51.828125 -15.148438 C 51.828125 -17.792969 49.636719 -20.074219 46.992188 -20.074219 L 28.46875 -20.074219 C 28.105469 -20.074219 27.832031 -20.347656 27.832031 -20.714844 L 27.832031 -26.554688 C 27.832031 -26.917969 28.105469 -27.191406 28.46875 -27.191406 L 41.882812 -27.191406 C 44.253906 -27.191406 46.261719 -29.109375 46.261719 -31.570312 L 46.261719 -41.515625 C 46.261719 -43.890625 44.253906 -45.898438 41.882812 -45.898438 L 28.46875 -45.898438 C 28.105469 -45.898438 27.832031 -46.171875 27.832031 -46.445312 L 27.832031 -52.46875 C 27.832031 -52.742188 28.105469 -53.195312 28.46875 -53.195312 Z M 28.46875 -53.195312 "/></g></g></g><g fill="#5ce1e6" fill-opacity="1"><g transform="translate(119.121799, 172.005135)"><g><path d="M 56.300781 -72.90625 L 44.800781 -72.90625 C 41.242188 -72.90625 38.140625 -69.988281 38.140625 -66.335938 L 38.140625 -44.894531 L 27.464844 -68.617188 C 26.460938 -71.171875 23.996094 -72.90625 21.167969 -72.90625 L 9.671875 -72.90625 C 6.023438 -72.90625 3.011719 -69.988281 3.011719 -66.335938 L 3.011719 -5.382812 C 3.011719 -1.734375 6.023438 1.1875 9.671875 1.1875 L 21.167969 1.1875 C 24.910156 1.1875 27.832031 -1.734375 27.832031 -5.382812 L 27.832031 -25.914062 L 38.507812 -3.285156 C 39.601562 -0.730469 41.882812 1.1875 44.800781 1.1875 L 56.300781 1.1875 C 60.039062 1.1875 62.960938 -1.734375 62.960938 -5.382812 L 62.960938 -66.335938 C 62.960938 -69.988281 60.039062 -72.90625 56.300781 -72.90625 Z M 56.300781 -72.90625 "/></g></g></g><g fill="#5ce1e6" fill-opacity="1"><g transform="translate(185.092063, 172.005135)"><g><path d="M 61.136719 -72.996094 L 9.398438 -72.996094 C 5.929688 -72.996094 3.011719 -70.167969 3.011719 -66.609375 L 3.011719 -54.109375 C 3.011719 -50.640625 5.929688 -47.722656 9.398438 -47.722656 L 21.992188 -47.722656 C 22.355469 -47.722656 22.628906 -47.355469 22.628906 -47.082031 L 22.628906 -6.203125 C 22.628906 -2.738281 25.457031 0.183594 29.109375 0.183594 L 41.515625 0.183594 C 44.984375 0.183594 47.90625 -2.738281 47.90625 -6.203125 L 47.90625 -47.082031 C 47.90625 -47.355469 48.269531 -47.722656 48.632812 -47.722656 L 61.136719 -47.722656 C 64.601562 -47.722656 67.523438 -50.640625 67.523438 -54.109375 L 67.523438 -66.609375 C 67.523438 -70.167969 64.601562 -72.996094 61.136719 -72.996094 Z M 61.136719 -72.996094 "/></g></g></g><g fill="#5ce1e6" fill-opacity="1"><g transform="translate(255.624599, 172.005135)"><g><path d="M 45.257812 -24.636719 L 27.464844 -24.636719 L 27.464844 -65.605469 C 27.464844 -69.53125 23.996094 -72.996094 20.257812 -72.996094 L 9.671875 -72.996094 C 5.75 -72.996094 3.011719 -69.53125 3.011719 -65.605469 L 3.011719 -6.023438 C 3.011719 -2.738281 5.109375 0 9.035156 0 L 45.257812 0 C 48.632812 0 51.371094 -2.738281 51.371094 -6.023438 L 51.371094 -18.25 C 51.371094 -21.625 48.632812 -24.636719 45.257812 -24.636719 Z M 45.257812 -24.636719 "/></g></g></g><g fill="#5ce1e6" fill-opacity="1"><g transform="translate(310.00672, 172.005135)"><g><path d="M 28.46875 -53.195312 L 46.992188 -53.195312 C 49.636719 -53.195312 51.828125 -55.386719 51.828125 -57.941406 L 51.828125 -68.160156 C 51.828125 -70.808594 49.636719 -72.90625 46.992188 -72.90625 L 9.671875 -72.90625 C 5.929688 -72.90625 3.011719 -69.988281 3.011719 -67.886719 L 3.011719 -8.484375 C 3.011719 -3.101562 5.929688 -0.183594 9.671875 -0.183594 L 46.992188 -0.183594 C 49.636719 -0.183594 51.828125 -2.28125 51.828125 -4.925781 L 51.828125 -15.148438 C 51.828125 -17.792969 49.636719 -20.074219 46.992188 -20.074219 L 28.46875 -20.074219 C 28.105469 -20.074219 27.832031 -20.347656 27.832031 -20.714844 L 27.832031 -26.554688 C 27.832031 -26.917969 28.105469 -27.191406 28.46875 -27.191406 L 41.882812 -27.191406 C 44.253906 -27.191406 46.261719 -29.109375 46.261719 -31.570312 L 46.261719 -41.515625 C 46.261719 -43.890625 44.253906 -45.898438 41.882812 -45.898438 L 28.46875 -45.898438 C 28.105469 -45.898438 27.832031 -46.171875 27.832031 -46.445312 L 27.832031 -52.46875 C 27.832031 -52.742188 28.105469 -53.195312 28.46875 -53.195312 Z M 28.46875 -53.195312 "/></g></g></g><path stroke-linecap="butt" transform="matrix(0.9375, 0, 0, 0.9375, 0.0000045, 98.475639)" fill="none" stroke-linejoin="miter" d="M 61.995833 30.25932 L 44.579165 30.25932 C 44.579165 30.25932 42.533331 30.25932 41.154165 31.70932 C 39.991664 32.87182 39.612498 34.346821 39.612498 35.225987 L 39.612498 39.025987 C 39.612498 41.638488 42.033331 43.588488 44.670831 43.588488 L 47.191665 43.588488 L 47.191665 46.700988 C 47.191665 50.788488 43.887498 53.521822 39.799998 53.521822 C 35.808331 53.521822 32.504164 50.217655 32.504164 46.225988 L 32.504164 27.80932 C 32.504164 24.413487 35.308331 20.513486 39.799998 20.513486 C 42.416665 20.513486 44.766665 21.988486 45.837498 23.72182 C 46.499998 24.69682 47.095832 24.817653 47.783332 24.817653 L 64.916666 24.817653 C 65.391666 24.817653 66.9625 24.69682 68.220833 23.438486 C 69.670833 22.08432 69.670833 20.60932 69.670833 20.038486 L 69.670833 18.875986 C 69.670833 17.496819 67.4375 10.488486 62.779166 5.638485 C 58.287499 0.959318 51.683332 -3.032349 41.749998 -3.032349 L 36.591664 -3.032349 C 28.204164 -3.032349 20.124997 1.150985 15.466663 6.805152 C 11.287496 11.959319 9.145829 18.280153 9.145829 24.030153 L 9.145829 50.005155 C 9.145829 57.109322 11.949996 63.359322 15.374996 67.325989 C 22.479163 75.71349 31.437497 77.259323 35.429164 77.259323 L 43.008331 77.259323 C 51.279165 77.259323 58.974999 73.171823 62.970833 68.609323 C 67.341666 63.642656 70.2625 57.609322 70.2625 50.005155 L 70.2625 41.259321 C 70.2625 34.438487 66.558333 30.25932 61.995833 30.25932 Z M 102.283335 19.255153 L 122.02917 19.255153 C 124.858337 19.255153 127.208337 16.925986 127.208337 14.192653 L 127.208337 3.288485 C 127.208337 0.484318 124.858337 -1.774015 122.02917 -1.774015 L 82.229167 -1.774015 C 78.2375 -1.774015 75.125 1.338485 75.125 3.596818 L 75.125 66.946823 C 75.125 72.696823 78.2375 75.809323 82.229167 75.809323 L 122.02917 75.809323 C 124.858337 75.809323 127.208337 73.57599 127.208337 70.746823 L 127.208337 59.842656 C 127.208337 57.013489 124.858337 54.588489 122.02917 54.588489 L 102.283335 54.588489 C 101.904169 54.588489 101.595835 54.305155 101.595835 53.900988 L 101.595835 47.675988 C 101.595835 47.296821 101.904169 46.984321 102.283335 46.984321 L 116.587503 46.984321 C 119.12917 46.984321 121.270836 44.942655 121.270836 42.330154 L 121.270836 31.70932 C 121.270836 29.188487 119.12917 27.050987 116.587503 27.050987 L 102.283335 27.050987 C 101.904169 27.050987 101.595835 26.742653 101.595835 26.455153 L 101.595835 20.038486 C 101.595835 19.755153 101.904169 19.255153 102.283335 19.255153 Z M 190.458341 -1.774015 L 178.19584 -1.774015 C 174.391673 -1.774015 171.091673 1.338485 171.091673 5.234319 L 171.091673 28.117653 L 159.708339 2.813485 C 158.637506 0.0801516 156.000005 -1.774015 152.983339 -1.774015 L 140.720838 -1.774015 C 136.825004 -1.774015 133.616671 1.338485 133.616671 5.234319 L 133.616671 70.25099 C 133.616671 74.146823 136.825004 77.259323 140.720838 77.259323 L 152.983339 77.259323 C 156.975006 77.259323 160.087506 74.146823 160.087506 70.25099 L 160.087506 48.363488 L 171.49584 72.505156 C 172.65834 75.217657 175.08334 77.259323 178.19584 77.259323 L 190.458341 77.259323 C 194.450008 77.259323 197.562508 74.146823 197.562508 70.25099 L 197.562508 5.234319 C 197.562508 1.338485 194.450008 -1.774015 190.458341 -1.774015 Z M 265.983346 -1.869849 L 210.804176 -1.869849 C 207.100009 -1.869849 203.987509 1.150985 203.987509 4.950985 L 203.987509 18.280153 C 203.987509 21.988486 207.100009 25.100987 210.804176 25.100987 L 224.233343 25.100987 C 224.633343 25.100987 224.920843 25.480153 224.920843 25.767653 L 224.920843 69.371823 C 224.920843 73.07599 227.93751 76.18849 231.833344 76.18849 L 245.070845 76.18849 C 248.754178 76.18849 251.866678 73.07599 251.866678 69.371823 L 251.866678 25.767653 C 251.866678 25.480153 252.270845 25.100987 252.650012 25.100987 L 265.983346 25.100987 C 269.687513 25.100987 272.800013 21.988486 272.800013 18.280153 L 272.800013 4.950985 C 272.800013 1.150985 269.687513 -1.869849 265.983346 -1.869849 Z M 324.29585 49.717655 L 305.312515 49.717655 L 305.312515 6.021819 C 305.312515 1.838485 301.604182 -1.869849 297.612515 -1.869849 L 286.325014 -1.869849 C 282.14168 -1.869849 279.220847 1.838485 279.220847 6.021819 L 279.220847 69.584323 C 279.220847 73.07599 281.45418 76.00099 285.658347 76.00099 L 324.29585 76.00099 C 327.887517 76.00099 330.80835 73.07599 330.80835 69.584323 L 330.80835 56.538489 C 330.80835 52.925988 327.887517 49.717655 324.29585 49.717655 Z M 364.387519 19.255153 L 384.133354 19.255153 C 386.962521 19.255153 389.316687 16.925986 389.316687 14.192653 L 389.316687 3.288485 C 389.316687 0.484318 386.962521 -1.774015 384.133354 -1.774015 L 344.333351 -1.774015 C 340.341684 -1.774015 337.229184 1.338485 337.229184 3.596818 L 337.229184 66.946823 C 337.229184 72.696823 340.341684 75.809323 344.333351 75.809323 L 384.133354 75.809323 C 386.962521 75.809323 389.316687 73.57599 389.316687 70.746823 L 389.316687 59.842656 C 389.316687 57.013489 386.962521 54.588489 384.133354 54.588489 L 364.387519 54.588489 C 364.008352 54.588489 363.700019 54.305155 363.700019 53.900988 L 363.700019 47.675988 C 363.700019 47.296821 364.008352 46.984321 364.387519 46.984321 L 378.691687 46.984321 C 381.23752 46.984321 383.37502 44.942655 383.37502 42.330154 L 383.37502 31.70932 C 383.37502 29.188487 381.23752 27.050987 378.691687 27.050987 L 364.387519 27.050987 C 364.008352 27.050987 363.700019 26.742653 363.700019 26.455153 L 363.700019 20.038486 C 363.700019 19.755153 364.008352 19.255153 364.387519 19.255153 Z M 364.387519 19.255153 " stroke="#b2edef" stroke-width="1.581663" stroke-opacity="1" stroke-miterlimit="4"/></svg>