<svg xmlns="http://www.w3.org/2000/svg" xmlns:xlink="http://www.w3.org/1999/xlink" width="500" zoomAndPan="magnify" viewBox="0 0 375 239.999995" height="320" preserveAspectRatio="xMidYMid meet" version="1.0"><defs><g/><clipPath id="80c1b5543a"><path d="M 184 12 L 366 12 L 366 229 L 184 229 Z M 184 12 " clip-rule="nonzero"/></clipPath><clipPath id="e53e9a7f9e"><path d="M 120.074219 165.578125 L 217 -21.558594 L 402.804688 74.675781 L 305.882812 261.816406 Z M 120.074219 165.578125 " clip-rule="nonzero"/></clipPath><clipPath id="ac7f8b40d4"><path d="M 120.074219 165.578125 L 217 -21.558594 L 402.804688 74.675781 L 305.882812 261.816406 Z M 120.074219 165.578125 " clip-rule="nonzero"/></clipPath><clipPath id="10a186cda2"><path d="M 344 65 L 362 65 L 362 83 L 344 83 Z M 344 65 " clip-rule="nonzero"/></clipPath><clipPath id="f3911c7ea2"><path d="M 120.074219 165.578125 L 217 -21.558594 L 402.804688 74.675781 L 305.882812 261.816406 Z M 120.074219 165.578125 " clip-rule="nonzero"/></clipPath><clipPath id="a1485ec374"><path d="M 120.074219 165.578125 L 217 -21.558594 L 402.804688 74.675781 L 305.882812 261.816406 Z M 120.074219 165.578125 " clip-rule="nonzero"/></clipPath></defs><g fill="#f50057" fill-opacity="1"><g transform="translate(-4.610884, 144.414287)"><g><path d="M 52.371094 -70.601562 C 41.023438 -70.601562 31.097656 -67.160156 24.109375 -61.789062 C 22.285156 -64.828125 21.472656 -67.664062 21.171875 -68.878906 C 20.460938 -70.296875 14.992188 -69.082031 14.382812 -66.347656 C 14.789062 -63.511719 15.296875 -60.371094 17.929688 -55.8125 C 10.636719 -47.101562 6.886719 -35.757812 6.988281 -26.4375 C 7.292969 -12.863281 15.398438 -1.925781 29.578125 -2.429688 C 35.859375 -2.632812 40.921875 -4.558594 43.757812 -7.496094 C 43.152344 -5.773438 41.632812 0.710938 41.226562 2.226562 C 30.488281 3.242188 18.234375 6.683594 16.613281 17.21875 C 15.195312 26.335938 22.589844 30.1875 32.109375 30.1875 C 48.621094 30.1875 53.6875 19.042969 56.726562 8.105469 C 66.144531 4.558594 73.238281 -5.167969 80.023438 -16.816406 C 80.125 -17.726562 76.375 -20.765625 75.261719 -19.550781 C 70.199219 -10.839844 65.4375 -4.355469 59.460938 -0.710938 C 61.585938 -7.800781 64.523438 -19.042969 66.753906 -28.363281 C 65.132812 -32.820312 52.371094 -32.109375 49.332031 -29.984375 C 44.976562 -17.117188 39.605469 -13.371094 34.746094 -13.167969 C 29.171875 -12.964844 25.832031 -19.753906 25.832031 -27.148438 C 25.832031 -32.414062 26.945312 -37.984375 28.867188 -42.644531 C 42.039062 -33.628906 64.121094 -32.210938 71.617188 -47.914062 C 76.679688 -58.449219 69.589844 -70.601562 52.371094 -70.601562 Z M 49.230469 -59.765625 C 53.28125 -59.664062 55.609375 -57.535156 55.105469 -54.800781 C 53.6875 -47.507812 42.238281 -46.394531 33.527344 -51.152344 C 37.277344 -56.21875 42.949219 -59.867188 49.230469 -59.765625 Z M 31.707031 15.09375 C 33.425781 11.851562 37.78125 10.433594 39.707031 9.925781 C 38.695312 13.574219 37.683594 17.726562 35.453125 19.144531 C 32.414062 21.070312 29.984375 18.335938 31.707031 15.09375 Z M 31.707031 15.09375 "/></g></g></g><g fill="#f50057" fill-opacity="1"><g transform="translate(69.536116, 144.414287)"><g><path d="M 29.171875 -43.457031 C 12.5625 -44.164062 1.113281 -32.617188 1.214844 -18.839844 C 1.316406 -8.105469 8.8125 0.910156 25.324219 1.011719 C 40.519531 1.113281 49.535156 -4.050781 57.027344 -16.816406 C 57.535156 -17.726562 53.078125 -21.070312 52.269531 -19.550781 C 45.683594 -6.179688 24.3125 -4.253906 21.171875 -15.195312 C 32.414062 -14.078125 40.519531 -17.625 43.757812 -24.613281 C 47.203125 -32.007812 43.558594 -42.847656 29.171875 -43.457031 Z M 27.351562 -33.226562 C 28.769531 -33.226562 28.867188 -31.402344 28.769531 -30.1875 C 28.464844 -26.742188 25.628906 -22.992188 20.867188 -22.589844 C 21.171875 -28.667969 24.511719 -33.226562 27.351562 -33.226562 Z M 27.351562 -33.226562 "/></g></g></g><g fill="#f50057" fill-opacity="1"><g transform="translate(120.689445, 144.414287)"><g><path d="M 41.53125 -43.757812 C 34.84375 -43.859375 27.855469 -39.203125 24.3125 -36.667969 L 25.324219 -40.011719 C 22.992188 -43.757812 10.535156 -44.367188 6.785156 -42.140625 C 3.445312 -29.679688 -0.203125 -15.09375 -3.746094 -1.722656 C -4.863281 2.328125 14.890625 1.925781 15.699219 -1.316406 C 18.03125 -10.738281 19.957031 -19.246094 22.589844 -28.769531 C 23.5 -29.476562 25.730469 -30.894531 27.550781 -30.894531 C 29.273438 -30.894531 29.476562 -29.882812 28.867188 -27.550781 C 28.566406 -26.234375 26.335938 -17.523438 25.527344 -14.484375 C 23.195312 -5.570312 25.425781 1.417969 37.582031 1.011719 C 50.039062 0.609375 58.144531 -9.824219 62.195312 -16.816406 C 62.601562 -17.726562 58.347656 -21.070312 57.433594 -19.550781 C 54.496094 -14.585938 50.039062 -10.230469 46.695312 -10.128906 C 45.277344 -10.128906 44.164062 -12.054688 44.976562 -15.800781 C 45.886719 -20.359375 48.214844 -26.742188 49.128906 -30.488281 C 51.054688 -38.390625 48.621094 -43.65625 41.53125 -43.757812 Z M 41.53125 -43.757812 "/></g></g></g><g fill="#f50057" fill-opacity="1"><g transform="translate(177.00874, 144.414287)"><g><path d="M 15.5 1.011719 C 27.550781 1.113281 35.453125 -5.46875 41.734375 -16.917969 C 42.140625 -17.726562 37.984375 -20.867188 37.074219 -19.652344 C 31.503906 -9.925781 23.804688 -9.722656 21.675781 -9.925781 C 18.234375 -10.230469 19.246094 -15.699219 21.273438 -23.296875 C 22.386719 -27.449219 23.5 -32.007812 24.816406 -36.566406 L 31.707031 -36.566406 C 34.542969 -37.683594 35.453125 -45.078125 32.820312 -46.597656 L 27.25 -46.597656 C 29.070312 -53.484375 30.488281 -58.648438 32.3125 -65.941406 C 30.894531 -70.398438 15.699219 -70.601562 13.269531 -68.273438 C 11.75 -63.410156 9.824219 -55.003906 7.597656 -46.597656 L 3.949219 -46.597656 C 0.507812 -45.378906 0.101562 -37.480469 1.722656 -36.566406 L 4.964844 -36.566406 C 3.34375 -30.488281 1.925781 -25.121094 1.214844 -20.359375 C -0.808594 -6.988281 2.9375 0.910156 15.5 1.011719 Z M 15.5 1.011719 "/></g></g></g><g fill="#f50057" fill-opacity="1"><g transform="translate(212.866704, 144.414287)"><g><path d="M 33.125 -70.601562 C 13.574219 -70.398438 4.457031 -51.054688 1.925781 -33.832031 C -0.710938 -16.003906 2.734375 0.808594 21.171875 1.011719 C 36.667969 1.214844 45.683594 -6.28125 51.761719 -16.816406 C 52.167969 -17.828125 47.914062 -20.867188 47.101562 -19.652344 C 42.339844 -11.75 34.542969 -8.003906 28.058594 -8.105469 C 20.257812 -8.203125 17.421875 -14.382812 18.4375 -22.691406 C 35.25 -26.539062 46.292969 -38.390625 47.914062 -50.546875 C 49.535156 -62.804688 43.65625 -70.703125 33.125 -70.601562 Z M 32.210938 -58.75 C 34.84375 -58.851562 34.136719 -52.167969 32.109375 -47 C 29.882812 -41.226562 25.019531 -34.441406 20.460938 -33.226562 C 21.472656 -36.972656 23.195312 -43.355469 25.121094 -48.316406 C 27.046875 -53.382812 29.882812 -58.648438 32.210938 -58.75 Z M 32.210938 -58.75 "/></g></g></g><g fill="#f50057" fill-opacity="1"><g transform="translate(258.854048, 144.414287)"><g><path d="M 29.171875 -43.457031 C 12.5625 -44.164062 1.113281 -32.617188 1.214844 -18.839844 C 1.316406 -8.105469 8.8125 0.910156 25.324219 1.011719 C 40.519531 1.113281 49.535156 -4.050781 57.027344 -16.816406 C 57.535156 -17.726562 53.078125 -21.070312 52.269531 -19.550781 C 45.683594 -6.179688 24.3125 -4.253906 21.171875 -15.195312 C 32.414062 -14.078125 40.519531 -17.625 43.757812 -24.613281 C 47.203125 -32.007812 43.558594 -42.847656 29.171875 -43.457031 Z M 27.351562 -33.226562 C 28.769531 -33.226562 28.867188 -31.402344 28.769531 -30.1875 C 28.464844 -26.742188 25.628906 -22.992188 20.867188 -22.589844 C 21.171875 -28.667969 24.511719 -33.226562 27.351562 -33.226562 Z M 27.351562 -33.226562 "/></g></g></g><g fill="#071e64" fill-opacity="1"><g transform="translate(107.090197, 194.65578)"><g><path d="M 14.238281 -19.597656 C 11.519531 -19.558594 9.519531 -18.359375 8.238281 -16.679688 L 8.238281 -21.71875 L 8.28125 -27.199219 C 8.28125 -28.039062 8 -28.398438 7.359375 -28.398438 C 6.71875 -28.398438 3.839844 -27.4375 2.160156 -26.636719 C 1.199219 -26.199219 0.921875 -25.917969 0.921875 -25.398438 C 0.921875 -24.199219 2.800781 -24.476562 2.800781 -21.71875 L 2.839844 -5.160156 C 2.839844 -3.601562 2.71875 -2.28125 2.519531 -1.160156 C 2.398438 -0.359375 2.679688 0.121094 3.519531 0.121094 C 4.71875 0.121094 5.839844 -1.199219 7.160156 -1.238281 C 8.597656 -1.28125 9.480469 0.398438 13.359375 0.398438 C 17.519531 0.398438 22.597656 -3.28125 22.597656 -10.558594 C 22.597656 -16.117188 18.839844 -19.640625 14.238281 -19.597656 Z M 13.277344 -2.078125 C 10.480469 -2.078125 8.199219 -4.800781 8.199219 -8.398438 L 8.160156 -11.320312 C 8.121094 -13.757812 9.640625 -16.4375 12.320312 -16.4375 C 15.238281 -16.4375 17.4375 -12.960938 17.4375 -8.121094 C 17.4375 -4.917969 16.078125 -2.078125 13.277344 -2.078125 Z M 13.277344 -2.078125 "/></g></g></g><g fill="#071e64" fill-opacity="1"><g transform="translate(143.327809, 194.65578)"><g><path d="M 19 -6.121094 C 17.558594 -4.71875 15.597656 -3.480469 13.160156 -3.480469 C 10.078125 -3.480469 8.238281 -5.28125 7.398438 -7.121094 C 11.558594 -8.640625 14.800781 -9.878906 18.878906 -11.71875 C 19.640625 -12.078125 19.917969 -12.640625 19.796875 -13.277344 C 19.238281 -16.71875 16.480469 -19.597656 11.679688 -19.597656 C 6.078125 -19.597656 1.320312 -15.160156 1.320312 -9 C 1.320312 -3.519531 5.160156 0.398438 10.839844 0.398438 C 16.160156 0.398438 19.480469 -2.878906 20.277344 -5.121094 C 20.679688 -6.28125 19.796875 -6.917969 19 -6.121094 Z M 9.917969 -16.957031 C 11.839844 -17.320312 13.800781 -15.878906 14.359375 -13.558594 C 14.640625 -12.519531 14.117188 -12.238281 13.4375 -11.917969 C 11.277344 -11 9 -10.199219 6.679688 -9.398438 C 6.480469 -10.078125 6.359375 -11.039062 6.359375 -11.917969 C 6.359375 -14.480469 7.597656 -16.679688 9.917969 -16.957031 Z M 9.917969 -16.957031 "/></g></g></g><g fill="#071e64" fill-opacity="1"><g transform="translate(177.005674, 194.65578)"><g><path d="M 22.078125 -3.078125 C 21.199219 -3.039062 20.640625 -3.601562 20.199219 -5.238281 L 18.238281 -12.757812 C 17.359375 -16.078125 15.839844 -19.597656 10.71875 -19.597656 C 6.878906 -19.597656 3.839844 -17.558594 2.839844 -15.878906 C 2.238281 -14.878906 3.078125 -14.277344 3.839844 -14.757812 C 5.28125 -15.558594 6.917969 -16.320312 8.71875 -16.320312 C 11.71875 -16.320312 12.519531 -14.320312 13.238281 -11.800781 C 11.878906 -12 11.078125 -12.121094 10.039062 -12.121094 C 4.359375 -12.121094 1 -9.359375 1 -5.519531 C 1 -2.199219 3.878906 0.359375 8.320312 0.359375 C 10.71875 0.359375 13.4375 -0.558594 15.320312 -2.640625 C 15.917969 -0.640625 16.957031 0.320312 18.71875 0.320312 C 20.640625 0.320312 22.839844 -1.039062 22.839844 -2.398438 C 22.839844 -2.878906 22.519531 -3.078125 22.078125 -3.078125 Z M 10.480469 -2.441406 C 7.878906 -2.441406 6.199219 -4.121094 6.160156 -6.398438 C 6.160156 -8.597656 7.839844 -10.039062 10.679688 -10.039062 C 11.960938 -10.039062 13.519531 -9.640625 13.800781 -8.71875 C 14.160156 -7.320312 14.519531 -6.320312 14.640625 -5.640625 C 14.960938 -4 12.71875 -2.441406 10.480469 -2.441406 Z M 10.480469 -2.441406 "/></g></g></g><g fill="#071e64" fill-opacity="1"><g transform="translate(212.283379, 194.65578)"><g><path d="M 21.71875 -18.398438 C 21.71875 -19.238281 21.4375 -19.597656 20.796875 -19.597656 C 20.160156 -19.597656 17.277344 -18.640625 15.597656 -17.839844 C 14.640625 -17.398438 14.359375 -17.117188 14.359375 -16.597656 C 14.359375 -15.398438 16.277344 -15.679688 16.277344 -12.917969 L 16.277344 -8.71875 C 16.277344 -5.320312 14.078125 -3.078125 11.960938 -3.039062 C 9.558594 -3 8.71875 -4.917969 8.71875 -7.960938 L 8.71875 -12.917969 L 8.757812 -18.398438 C 8.757812 -19.238281 8.480469 -19.597656 7.839844 -19.597656 C 7.199219 -19.597656 4.320312 -18.640625 2.640625 -17.839844 C 1.679688 -17.398438 1.398438 -17.117188 1.398438 -16.597656 C 1.398438 -15.398438 3.320312 -15.679688 3.320312 -12.917969 L 3.320312 -7.679688 C 3.320312 -2.558594 5.757812 0.359375 10.078125 0.359375 C 12.238281 0.359375 14.800781 -0.839844 16.4375 -3.039062 L 16.480469 -1.960938 C 16.558594 -0.28125 17.039062 0.359375 18.160156 0.359375 C 19.277344 0.359375 21.519531 -0.398438 22.71875 -1.039062 C 23.597656 -1.519531 24 -1.960938 24 -2.519531 C 24 -3.679688 21.679688 -3.039062 21.679688 -5.960938 L 21.679688 -12.917969 Z M 21.71875 -18.398438 "/></g></g></g><g fill="#071e64" fill-opacity="1"><g transform="translate(249.84086, 194.65578)"><g><path d="M 13.519531 -4.519531 C 12.679688 -3.878906 11.679688 -3.359375 10.640625 -3.359375 C 8.839844 -3.359375 8.28125 -4.441406 8.320312 -8 C 8.359375 -11.640625 8.359375 -14.359375 8.359375 -16.558594 L 11.800781 -16.4375 C 12.597656 -16.398438 13.277344 -16.597656 13.519531 -17.800781 C 13.757812 -19 13.121094 -19.199219 12.359375 -19.199219 L 8.398438 -19.199219 C 8.441406 -20.4375 8.480469 -21.519531 8.597656 -22.597656 C 8.640625 -23.199219 8.28125 -23.71875 7.71875 -23.71875 C 7.480469 -23.71875 7.160156 -23.679688 6.238281 -23.160156 C 4.601562 -22.160156 2.679688 -20.597656 1.199219 -19.078125 C 0.761719 -18.679688 0.601562 -18.199219 0.601562 -17.71875 C 0.601562 -17.039062 0.921875 -16.679688 2 -16.679688 L 3.078125 -16.679688 C 3 -14.597656 2.960938 -11.558594 2.960938 -8 L 2.960938 -5.917969 C 2.960938 -1.839844 5.039062 0.398438 8.640625 0.398438 C 12 0.398438 14.078125 -1.878906 14.679688 -3.679688 C 14.960938 -4.519531 14.277344 -5.078125 13.519531 -4.519531 Z M 13.519531 -4.519531 "/></g></g></g><g fill="#071e64" fill-opacity="1"><g transform="translate(277.599315, 194.65578)"><g><path d="M 17.957031 -19.199219 C 16.878906 -19.199219 16.199219 -19 16.199219 -18.199219 C 16.199219 -16.679688 18.359375 -17.238281 17.078125 -13.960938 L 13.480469 -4.441406 L 9.757812 -13.960938 C 8.480469 -17.238281 10.757812 -16.679688 10.757812 -18.199219 C 10.757812 -18.957031 10.078125 -19.199219 8.960938 -19.199219 L 2.878906 -19.199219 C 1.800781 -19.199219 1.121094 -19 1.121094 -18.199219 C 1.121094 -16.679688 2.761719 -17.238281 4.039062 -14 L 9.320312 -0.679688 C 9.679688 0.199219 9.917969 1.078125 9.917969 1.960938 C 9.917969 3.878906 8.960938 5.519531 7.679688 5.519531 C 5.519531 5.519531 5.679688 1.917969 3.359375 1.917969 C 1.761719 1.960938 0.839844 3.320312 0.839844 4.71875 C 0.839844 7.039062 3.160156 8.398438 5.640625 8.398438 C 10.597656 8.398438 12.359375 4.800781 14.558594 -0.921875 L 19.640625 -13.960938 C 20.878906 -17.238281 22.558594 -16.679688 22.558594 -18.199219 C 22.558594 -18.957031 21.878906 -19.199219 20.71875 -19.199219 Z M 17.957031 -19.199219 "/></g></g></g><g clip-path="url(#80c1b5543a)"><g clip-path="url(#e53e9a7f9e)"><g clip-path="url(#ac7f8b40d4)"><path fill="#f50057" d="M 184.824219 43.003906 C 184.296875 42.425781 184.339844 41.535156 184.914062 41.011719 C 217.285156 11.546875 265.863281 3.75 307.066406 25.089844 C 324.316406 34.023438 338.144531 46.964844 347.996094 62.179688 C 348.417969 62.832031 348.230469 63.707031 347.578125 64.128906 C 346.921875 64.550781 346.046875 64.363281 345.625 63.707031 C 336.035156 48.894531 322.570312 36.296875 305.769531 27.59375 C 265.652344 6.816406 218.34375 14.40625 186.820312 43.097656 C 186.242188 43.621094 185.347656 43.578125 184.824219 43.003906 Z M 237.203125 224.9375 C 237.339844 224.171875 238.074219 223.664062 238.84375 223.804688 C 283.019531 231.882812 329.089844 210.816406 350.785156 168.929688 C 364.335938 142.765625 365.765625 113.527344 357.113281 87.601562 C 356.867188 86.863281 357.265625 86.0625 358.003906 85.816406 C 358.746094 85.570312 359.546875 85.972656 359.792969 86.710938 C 368.675781 113.332031 367.210938 143.363281 353.292969 170.226562 C 331.011719 213.246094 283.699219 234.875 238.339844 226.578125 C 237.570312 226.4375 237.0625 225.703125 237.203125 224.9375 Z M 237.203125 224.9375 " fill-opacity="1" fill-rule="evenodd"/></g></g></g><g clip-path="url(#10a186cda2)"><g clip-path="url(#f3911c7ea2)"><g clip-path="url(#a1485ec374)"><path fill="#f50057" d="M 348.25 71.832031 C 346.816406 74.601562 347.902344 78.007812 350.671875 79.441406 C 353.445312 80.878906 356.851562 79.800781 358.285156 77.03125 C 359.71875 74.265625 358.632812 70.859375 355.863281 69.421875 C 353.089844 67.988281 349.683594 69.066406 348.25 71.832031 Z M 349.375 81.949219 C 345.21875 79.792969 343.589844 74.683594 345.742188 70.535156 C 347.890625 66.382812 353.003906 64.765625 357.160156 66.917969 C 361.316406 69.070312 362.945312 74.179688 360.796875 78.332031 C 358.644531 82.480469 353.535156 84.101562 349.375 81.949219 Z M 349.375 81.949219 " fill-opacity="1" fill-rule="evenodd"/></g></g></g><path fill="#ffde59" d="M 322.953125 68.609375 L 321.082031 62.929688 C 321.082031 62.929688 326.847656 54.523438 324.675781 52.96875 C 322.507812 51.417969 316.175781 59.417969 316.175781 59.417969 L 310.109375 59.417969 C 310.109375 59.417969 303.777344 51.417969 301.605469 52.96875 C 299.4375 54.523438 305.203125 62.929688 305.203125 62.929688 L 303.332031 68.609375 C 303.332031 68.609375 293.648438 72.070312 294.480469 74.582031 C 295.308594 77.097656 305.203125 74.289062 305.203125 74.289062 L 310.109375 77.800781 C 310.109375 77.800781 310.460938 87.941406 313.144531 87.941406 C 315.824219 87.941406 316.175781 77.800781 316.175781 77.800781 L 321.082031 74.289062 C 321.082031 74.289062 330.976562 77.097656 331.808594 74.582031 C 332.632812 72.070312 322.957031 68.609375 322.957031 68.609375 " fill-opacity="1" fill-rule="nonzero"/><path fill="#f50057" d="M 319.761719 54.097656 C 319.761719 60.941406 316.777344 66.492188 313.09375 66.492188 C 309.414062 66.492188 306.425781 60.945312 306.425781 54.097656 C 306.425781 47.25 311.316406 51.207031 313.09375 51.207031 C 314.871094 51.207031 319.761719 47.253906 319.761719 54.097656 " fill-opacity="1" fill-rule="nonzero"/><path fill="#f50057" d="M 300.289062 58.589844 C 306.894531 60.707031 311.332031 65.214844 310.191406 68.664062 C 309.054688 72.113281 302.777344 73.199219 296.167969 71.082031 C 289.5625 68.96875 294.886719 65.605469 295.4375 63.941406 C 295.984375 62.277344 293.679688 56.472656 300.289062 58.589844 " fill-opacity="1" fill-rule="nonzero"/><path fill="#f50057" d="M 298.609375 78.222656 C 302.695312 72.683594 308.417969 69.921875 311.394531 72.058594 C 314.375 74.191406 313.480469 80.40625 309.398438 85.945312 C 305.3125 91.480469 303.714844 85.453125 302.277344 84.425781 C 300.835938 83.394531 294.523438 83.761719 298.609375 78.226562 " fill-opacity="1" fill-rule="nonzero"/><path fill="#f50057" d="M 317.042969 85.859375 C 312.957031 80.320312 312.0625 74.105469 315.042969 71.972656 C 318.019531 69.839844 323.746094 72.601562 327.832031 78.136719 C 331.914062 83.675781 325.601562 83.304688 324.160156 84.335938 C 322.722656 85.363281 321.125 91.390625 317.042969 85.855469 " fill-opacity="1" fill-rule="nonzero"/><path fill="#f50057" d="M 330.117188 70.953125 C 323.507812 73.066406 317.226562 71.984375 316.089844 68.535156 C 314.953125 65.085938 319.386719 60.574219 325.996094 58.460938 C 332.601562 56.34375 330.296875 62.144531 330.847656 63.8125 C 331.398438 65.480469 336.722656 68.839844 330.117188 70.953125 " fill-opacity="1" fill-rule="nonzero"/><path fill="#ffffff" d="M 315.707031 69.453125 C 315.707031 69.789062 315.640625 70.109375 315.511719 70.421875 C 315.382812 70.730469 315.195312 71.003906 314.957031 71.238281 C 314.714844 71.476562 314.4375 71.660156 314.125 71.789062 C 313.808594 71.914062 313.480469 71.980469 313.140625 71.980469 C 312.800781 71.980469 312.476562 71.914062 312.160156 71.789062 C 311.847656 71.660156 311.570312 71.476562 311.328125 71.238281 C 311.089844 71.003906 310.902344 70.730469 310.773438 70.421875 C 310.644531 70.109375 310.578125 69.789062 310.578125 69.453125 C 310.578125 69.121094 310.644531 68.796875 310.773438 68.488281 C 310.902344 68.179688 311.089844 67.90625 311.328125 67.667969 C 311.570312 67.429688 311.847656 67.25 312.160156 67.121094 C 312.476562 66.992188 312.800781 66.929688 313.140625 66.929688 C 313.480469 66.929688 313.808594 66.992188 314.125 67.121094 C 314.4375 67.25 314.714844 67.429688 314.957031 67.667969 C 315.195312 67.90625 315.382812 68.179688 315.511719 68.488281 C 315.640625 68.796875 315.707031 69.121094 315.707031 69.453125 Z M 315.707031 69.453125 " fill-opacity="1" fill-rule="nonzero"/></svg>